<?xml version="1.0" standalone="no"?><!DOCTYPE svg PUBLIC "-//W3C//DTD SVG 1.1//EN" "http://www.w3.org/Graphics/SVG/1.1/DTD/svg11.dtd"><svg width="100%" height="100%" viewBox="0 0 100 100" version="1.1" xmlns="http://www.w3.org/2000/svg" xmlns:xlink="http://www.w3.org/1999/xlink" xml:space="preserve" style="fill-rule:evenodd;clip-rule:evenodd;stroke-linejoin:round;stroke-miterlimit:1.41421;"><path d="M90,80l-80,0l29.745,-59.49c0.719,4.585 3.765,8.403 7.889,10.207l-9.871,13.186l5.604,4.194l0.057,-0.075l5.229,3.89c0,0 -13.009,17.385 -13.009,17.385l-0.045,0.058l0,0.001c-1.247,1.679 -0.923,4.058 0.74,5.342c1.663,1.284 4.047,0.994 5.355,-0.637l0.001,0c0,0 0.045,-0.058 0.045,-0.058l17.26,-23.065l-0.026,-0.02l0.026,-0.035l-1.931,-1.436l-4.165,-3.215l-0.057,0.075l-5.228,-3.889l8.134,-10.866c1.217,-0.254 2.373,-0.674 3.445,-1.233l30.802,49.681Z" style="fill:#101010;fill-opacity:0.501961;"/></svg>