<?xml version="1.0" standalone="no"?><!DOCTYPE svg PUBLIC "-//W3C//DTD SVG 1.1//EN" "http://www.w3.org/Graphics/SVG/1.1/DTD/svg11.dtd"><svg width="100%" height="100%" viewBox="0 0 100 100" version="1.1" xmlns="http://www.w3.org/2000/svg" xmlns:xlink="http://www.w3.org/1999/xlink" xml:space="preserve" style="fill-rule:evenodd;clip-rule:evenodd;stroke-linejoin:round;stroke-miterlimit:1.41421;"><g><path d="M67.505,79.16c-0.393,0.139 -0.815,0.215 -1.255,0.215c-2.07,0 -3.75,-1.68 -3.75,-3.75c0,-2.07 1.68,-3.75 3.75,-3.75c1.881,0 3.44,1.387 3.709,3.194c0.745,-0.441 1.614,-0.694 2.541,-0.694c2.76,0 5,2.24 5,5c0,2.76 -2.24,5 -5,5c-2.76,0 -5,-2.24 -5,-5c0,-0.072 0.002,-0.144 0.005,-0.215ZM16.25,74.375c2.07,0 3.75,1.68 3.75,3.75c0,2.07 -1.68,3.75 -3.75,3.75c-2.07,0 -3.75,-1.68 -3.75,-3.75c0,-2.07 1.68,-3.75 3.75,-3.75ZM32.33,23.121c-1.991,-0.089 -3.58,-1.733 -3.58,-3.746c0,-2.07 1.68,-3.75 3.75,-3.75c2.07,0 3.75,1.68 3.75,3.75c0,0.389 -0.059,0.764 -0.17,1.117c1.576,-0.717 3.327,-1.117 5.17,-1.117c6.899,0 12.5,5.601 12.5,12.5c0,6.899 -5.601,12.5 -12.5,12.5c-1.799,0 -3.51,-0.381 -5.056,-1.066c0.037,0.35 0.056,0.706 0.056,1.066c0,1.985 -0.58,3.836 -1.579,5.393c6.633,1.549 11.579,7.505 11.579,14.607c0,0.964 -0.091,1.906 -0.265,2.819c0.463,-0.205 0.976,-0.319 1.515,-0.319c2.07,0 3.75,1.68 3.75,3.75c0,2.07 -1.68,3.75 -3.75,3.75c-1.525,0 -2.839,-0.913 -3.425,-2.221c-2.632,4.328 -7.393,7.221 -12.825,7.221c-8.279,0 -15,-6.721 -15,-15c0,-4.492 1.979,-8.526 5.112,-11.276c-3.05,-1.713 -5.112,-4.98 -5.112,-8.724c0,-5.519 4.481,-10 10,-10c0.987,0 1.94,0.143 2.841,0.41c-0.223,-0.934 -0.341,-1.908 -0.341,-2.91c0,-3.407 1.366,-6.498 3.58,-8.754ZM67.766,47.089c-1.73,-2.145 -2.766,-4.872 -2.766,-7.839c0,-6.899 5.601,-12.5 12.5,-12.5c6.899,0 12.5,5.601 12.5,12.5c0,6.899 -5.601,12.5 -12.5,12.5c-0.144,0 -0.287,-0.002 -0.43,-0.007c0.278,0.784 0.43,1.628 0.43,2.507c0,1.704 -0.569,3.275 -1.528,4.535c0.764,-0.496 1.675,-0.785 2.653,-0.785c2.691,0 4.875,2.184 4.875,4.875c0,2.691 -2.184,4.875 -4.875,4.875c-2.691,0 -4.875,-2.184 -4.875,-4.875c0,-0.978 0.289,-1.889 0.785,-2.653c-1.26,0.959 -2.831,1.528 -4.535,1.528c-4.139,0 -7.5,-3.361 -7.5,-7.5c0,-3.361 2.216,-6.209 5.266,-7.161ZM55.463,49.935c-0.288,-0.312 -0.463,-0.728 -0.463,-1.185c0,-0.966 0.784,-1.75 1.75,-1.75c0.966,0 1.75,0.784 1.75,1.75c0,0.966 -0.784,1.75 -1.75,1.75c-0.08,0 -0.16,-0.005 -0.237,-0.016c1.275,0.88 2.112,2.351 2.112,4.016c0,2.691 -2.184,4.875 -4.875,4.875c-2.691,0 -4.875,-2.184 -4.875,-4.875c0,-2.691 2.184,-4.875 4.875,-4.875c0.603,0 1.18,0.11 1.713,0.31ZM81.75,21c0.966,0 1.75,0.784 1.75,1.75c0,0.966 -0.784,1.75 -1.75,1.75c-0.966,0 -1.75,-0.784 -1.75,-1.75c0,-0.966 0.784,-1.75 1.75,-1.75Z" style="fill:#101010;fill-opacity:0.501961;"/></g></svg>