<?xml version="1.0" standalone="no"?><!DOCTYPE svg PUBLIC "-//W3C//DTD SVG 1.1//EN" "http://www.w3.org/Graphics/SVG/1.1/DTD/svg11.dtd"><svg width="100%" height="100%" viewBox="0 0 100 100" version="1.1" xmlns="http://www.w3.org/2000/svg" xmlns:xlink="http://www.w3.org/1999/xlink" xml:space="preserve" style="fill-rule:evenodd;clip-rule:evenodd;stroke-linejoin:round;stroke-miterlimit:1.41421;"><path d="M50.188,9c22.181,0 40.189,18.008 40.189,40.188c0,22.181 -18.008,40.189 -40.189,40.189c-22.18,0 -40.188,-18.008 -40.188,-40.189c0,-22.18 18.008,-40.188 40.188,-40.188ZM64.707,39.517c2.315,0 4.152,0.564 5.511,1.69c1.358,1.127 2.037,2.71 2.037,4.747c0,1.359 -0.293,2.555 -0.879,3.589c-0.587,1.035 -1.313,1.845 -2.177,2.432c-0.865,0.586 -1.914,1.065 -3.149,1.435c-2.069,0.618 -4.4,0.927 -6.993,0.927c0.093,1.636 0.602,2.956 1.528,3.959c0.926,1.003 2.347,1.505 4.261,1.505c1.914,0 3.828,-0.679 5.742,-2.038l1.76,3.752c-0.617,0.555 -1.659,1.127 -3.126,1.713c-1.466,0.587 -3.141,0.88 -5.025,0.88c-3.766,0 -6.529,-1.042 -8.289,-3.126c-1.76,-2.084 -2.64,-4.947 -2.64,-8.591c0,-3.643 1.004,-6.699 3.01,-9.169c2.007,-2.47 4.817,-3.705 8.429,-3.705ZM50.582,32.71l-22.368,0l0,3.936l2.64,0.139l0,21.534c0,0.772 -0.448,1.204 -1.343,1.297l-1.528,0.139l0,3.751l12.642,0l0,-3.936l-4.121,-0.139l0,-9.077l11.392,0l0,-4.724l-11.392,0l0,-8.197l8.011,0c0.587,0 0.958,0.108 1.112,0.324c0.154,0.216 0.231,0.587 0.231,1.112l0,1.852l4.724,-0.324l0,-7.687ZM65.726,48.756c0.957,-0.695 1.435,-1.52 1.435,-2.478c0,-1.883 -0.926,-2.824 -2.778,-2.824c-1.729,0 -3.057,0.686 -3.983,2.06c-0.926,1.374 -1.436,3.018 -1.528,4.932c1.358,-0.03 2.601,-0.146 3.728,-0.347c1.127,-0.201 2.169,-0.648 3.126,-1.343Z" style="fill:#101010;fill-opacity:0.501961;"/></svg>