<?xml version="1.0" standalone="no"?><!DOCTYPE svg PUBLIC "-//W3C//DTD SVG 1.1//EN" "http://www.w3.org/Graphics/SVG/1.1/DTD/svg11.dtd"><svg width="100%" height="100%" viewBox="0 0 100 100" version="1.1" xmlns="http://www.w3.org/2000/svg" xmlns:xlink="http://www.w3.org/1999/xlink" xml:space="preserve" style="fill-rule:evenodd;clip-rule:evenodd;stroke-linejoin:round;stroke-miterlimit:1.41421;"><path d="M50.188,9c22.181,0 40.189,18.008 40.189,40.188c0,22.181 -18.008,40.189 -40.189,40.189c-22.18,0 -40.188,-18.008 -40.188,-40.189c0,-22.18 18.008,-40.188 40.188,-40.188ZM76.076,71.008c-1.698,1.606 -4.353,2.408 -7.965,2.408c-3.613,0 -6.438,-0.509 -8.475,-1.528l0,-6.437l4.399,-0.37l0,2.222c0,0.834 0.386,1.397 1.158,1.691c0.772,0.293 1.837,0.44 3.196,0.44c1.975,0 3.365,-0.595 4.167,-1.783c0.803,-1.189 1.205,-2.864 1.205,-5.025l0,-2.547c-1.482,1.729 -3.536,2.593 -6.16,2.593c-1.605,0 -3.018,-0.308 -4.237,-0.926c-1.22,-0.617 -2.169,-1.451 -2.848,-2.501c-1.328,-2.099 -1.992,-4.569 -1.992,-7.409c0,-4.045 1.096,-7.109 3.288,-9.193c2.192,-2.084 5.11,-3.126 8.753,-3.126c3.026,0 5.882,0.571 8.568,1.714l0,17.181c0,2.624 -0.031,4.307 -0.093,5.048c-0.278,3.427 -1.266,5.943 -2.964,7.548ZM29.766,32.71l-9.309,0l0,3.936l2.825,0.185l-1.25,21.535c-0.062,0.771 -0.448,1.188 -1.158,1.25l-1.667,0.139l0,3.751l10.929,0l0,-3.936l-3.01,-0.139l0.926,-17.182l0.093,0l7.039,18.293l4.399,0l7.132,-18.478l0.093,0l0.88,16.348c0.031,0.741 -0.371,1.142 -1.204,1.204l-1.668,0.139l0,3.751l11.161,0l0,-3.936l-2.871,-0.139l-1.158,-21.211c-0.031,-0.987 0.417,-1.528 1.343,-1.62l1.529,-0.139l0,-3.751l-9.17,0l-7.919,20.932l-0.093,0l-7.872,-20.932ZM73.761,54.059l0,-9.957c-1.081,-0.371 -2.316,-0.556 -3.705,-0.556c-1.884,0 -3.327,0.695 -4.33,2.084c-1.004,1.389 -1.505,3.273 -1.505,5.65c0,4.878 1.605,7.317 4.816,7.317c1.327,0 2.447,-0.409 3.357,-1.227c0.911,-0.818 1.367,-1.922 1.367,-3.311Z" style="fill:#101010;fill-opacity:0.501961;"/></svg>