<?xml version="1.0" standalone="no"?><!DOCTYPE svg PUBLIC "-//W3C//DTD SVG 1.1//EN" "http://www.w3.org/Graphics/SVG/1.1/DTD/svg11.dtd"><svg width="100%" height="100%" viewBox="0 0 100 100" version="1.1" xmlns="http://www.w3.org/2000/svg" xmlns:xlink="http://www.w3.org/1999/xlink" xml:space="preserve" style="fill-rule:evenodd;clip-rule:evenodd;stroke-linejoin:round;stroke-miterlimit:1.41421;"><path d="M50,9c22.077,0 40,17.923 40,40c0,22.077 -17.923,40 -40,40c-22.077,0 -40,-17.923 -40,-40c0,-22.077 17.923,-40 40,-40ZM55.665,60.043l-0.047,0l-9.631,-27.241l-10.811,0l0,3.824l2.974,0.284l-7.601,22c-0.283,0.818 -0.755,1.259 -1.416,1.322l-1.558,0.142l0,3.824l10.905,0l0,-4.013l-2.832,-0.142l1.416,-4.155l11.048,0l0.991,2.928c0.157,0.503 0.142,0.849 -0.047,1.038c-0.189,0.189 -0.551,0.315 -1.086,0.378l-1.794,0.142l0,3.824l12.18,0l0,-4.013l-2.691,-0.142ZM71.292,64.198l0,-3.777l-2.691,-0.142l0,-29.743l-8.451,0l0,3.919l1.653,0.094c0.787,0.063 1.18,0.441 1.18,1.133l0,23.275c0,0.913 -0.456,1.417 -1.369,1.511l-1.558,0.142l0,3.588l11.236,0ZM42.588,38.09l0.141,0l4.249,13.455l-8.781,0l4.391,-13.455Z" style="fill:#101010;fill-opacity:0.501961;"/></svg>