<?xml version="1.0" standalone="no"?><!DOCTYPE svg PUBLIC "-//W3C//DTD SVG 1.1//EN" "http://www.w3.org/Graphics/SVG/1.1/DTD/svg11.dtd"><svg width="100%" height="100%" viewBox="0 0 100 100" version="1.1" xmlns="http://www.w3.org/2000/svg" xmlns:xlink="http://www.w3.org/1999/xlink" xml:space="preserve" style="fill-rule:evenodd;clip-rule:evenodd;stroke-linejoin:round;stroke-miterlimit:1.41421;"><g><path d="M50,89.623c0,0 32.5,-19.552 32.5,-47.123c0,-17.937 -14.563,-32.5 -32.5,-32.5c-17.937,0 -32.5,14.563 -32.5,32.5c0,27.571 32.5,47.123 32.5,47.123ZM51.889,62.468c0,0 14.522,3.426 20.607,-2.678c3.305,-3.315 3.297,-8.689 -0.018,-11.994c-3.315,-3.304 -8.689,-3.296 -11.994,0.019c-6.085,6.104 -8.595,14.653 -8.595,14.653ZM48.111,62.468c0,0 -14.522,3.426 -20.607,-2.678c-3.305,-3.315 -3.297,-8.689 0.018,-11.994c3.315,-3.304 8.689,-3.296 11.994,0.019c6.085,6.104 8.595,14.653 8.595,14.653Z" style="fill:#101010;fill-opacity:0.501961;"/></g></svg>